<svg width="95" height="55" viewBox="0 0 95 55" fill="none" xmlns="http://www.w3.org/2000/svg">
<path d="M0 0H36.7797V55H0V0Z" fill="#C73731"/>
<path d="M81.1211 43.5233V43.1002C81.1211 41.073 81.7306 39.4424 82.9496 38.2084C84.1687 36.9744 85.7795 36.3574 87.7822 36.3574C89.7936 36.3574 91.4088 36.9744 92.6278 38.2084C93.8468 39.4424 94.4563 41.073 94.4563 43.1002V43.5233C94.4563 45.5593 93.8468 47.1944 92.6278 48.4283C91.4088 49.6623 89.7936 50.2793 87.7822 50.2793C85.7795 50.2793 84.1687 49.6623 82.9496 48.4283C81.7306 47.1944 81.1211 45.5593 81.1211 43.5233ZM84.5953 42.9812V43.6423C84.5953 44.8674 84.8652 45.8458 85.4051 46.5774C85.9537 47.3089 86.746 47.6747 87.7822 47.6747C88.8184 47.6747 89.6064 47.3089 90.1462 46.5774C90.6948 45.8458 90.9691 44.8674 90.9691 43.6423V42.9812C90.9691 41.7561 90.6948 40.7821 90.1462 40.0593C89.5977 39.3366 88.8097 38.9752 87.7822 38.9752C86.7547 38.9752 85.9667 39.3366 85.4182 40.0593C84.8696 40.7821 84.5953 41.7561 84.5953 42.9812Z" fill="#191919"/>
<path d="M67.8242 45.7973L71.0633 45.8105V46.0221C71.0633 46.7096 71.2897 47.2076 71.7425 47.5161C72.204 47.8246 72.8266 47.9788 73.6102 47.9788C74.3852 47.9788 74.9729 47.8378 75.3735 47.5557C75.7827 47.2737 75.9873 46.8771 75.9873 46.3658C75.9873 45.8634 75.7783 45.4888 75.3604 45.242C74.9424 44.9864 74.063 44.7088 72.7221 44.4091C71.1809 44.083 70.0359 43.5982 69.287 42.9548C68.5469 42.3025 68.1769 41.4255 68.1769 40.3238C68.1769 39.0986 68.6645 38.1335 69.6397 37.4283C70.6149 36.7144 71.9428 36.3574 73.6233 36.3574C75.2864 36.3574 76.6099 36.7232 77.5938 37.4548C78.5865 38.1863 79.0828 39.2 79.0828 40.4956V40.6807H75.8567V40.4692C75.8567 39.8787 75.6652 39.438 75.282 39.1471C74.8989 38.8474 74.3329 38.6976 73.5841 38.6976C72.8614 38.6976 72.3303 38.8254 71.9907 39.081C71.6511 39.3278 71.4813 39.6715 71.4813 40.1122C71.4813 40.5265 71.6946 40.8614 72.1213 41.117C72.5479 41.3638 73.4317 41.6327 74.7727 41.9235C76.3313 42.2496 77.4893 42.73 78.2469 43.3646C79.0044 43.9992 79.3832 44.8851 79.3832 46.0221C79.3832 47.353 78.8956 48.3975 77.9203 49.1555C76.9538 49.9047 75.5302 50.2793 73.6494 50.2793C71.786 50.2793 70.3537 49.9047 69.3524 49.1555C68.351 48.3975 67.8416 47.3354 67.8242 45.9692V45.7973Z" fill="#191919"/>
<path d="M53.7441 43.5233V43.1002C53.7441 41.073 54.3362 39.4424 55.5204 38.2084C56.7046 36.9744 58.2545 36.3574 60.1701 36.3574C62.0857 36.3574 63.5703 36.9392 64.6239 38.1026C65.6775 39.2661 66.2043 40.8658 66.2043 42.9019V44.0521H55.8208V41.9367H62.8476V41.7252C62.8476 40.9408 62.6256 40.2753 62.1815 39.7288C61.7375 39.1735 61.0713 38.8959 60.1832 38.8959C59.1819 38.8959 58.4243 39.2705 57.9106 40.0197C57.4056 40.7601 57.1531 41.712 57.1531 42.8755V43.6158C57.1531 44.8498 57.4273 45.8414 57.9759 46.5906C58.5245 47.3398 59.3342 47.7144 60.4052 47.7144C61.1367 47.7144 61.7592 47.5513 62.273 47.2252C62.7867 46.8903 63.2003 46.4848 63.5137 46.0089L66.0606 47.3574C65.6514 48.1948 64.9722 48.8911 64.0231 49.4464C63.074 50.0017 61.8811 50.2793 60.4444 50.2793C58.3285 50.2793 56.6829 49.6667 55.5074 48.4416C54.3319 47.2076 53.7441 45.5682 53.7441 43.5233Z" fill="#191919"/>
<path d="M38.6191 43.5368V43.1137C38.6191 41.1658 39.1242 39.5705 40.1342 38.3277C41.153 37.0849 42.4939 36.4635 44.157 36.4635C45.0626 36.4635 45.8331 36.6221 46.4688 36.9395C47.1131 37.2568 47.6138 37.671 47.9708 38.1822V30.0645H51.3536V49.9226H48.1275L48.0622 48.2171H48.01C47.6878 48.7636 47.1915 49.2307 46.521 49.6185C45.8506 49.9975 45.0626 50.187 44.157 50.187C42.4417 50.187 41.0877 49.5657 40.095 48.3229C39.1111 47.0713 38.6191 45.4759 38.6191 43.5368ZM42.0934 43.5897C42.0934 44.762 42.3415 45.7271 42.8378 46.4851C43.3341 47.2343 44.0917 47.6089 45.1104 47.6089C45.807 47.6089 46.3991 47.415 46.8867 47.0272C47.3743 46.6394 47.727 46.1899 47.9447 45.6786V40.9322C47.727 40.4122 47.3787 39.9671 46.8998 39.5969C46.4209 39.2267 45.8288 39.0416 45.1235 39.0416C44.096 39.0416 43.3341 39.4206 42.8378 40.1786C42.3415 40.9278 42.0934 41.8886 42.0934 43.0608V43.5897Z" fill="#191919"/>
<path d="M22.9473 49.9235V36.7288H26.2256L26.2778 38.3947H26.3301C26.7045 37.8041 27.2356 37.3326 27.9235 36.98C28.6201 36.6275 29.4124 36.4512 30.3006 36.4512C31.6241 36.4512 32.6908 36.8302 33.5005 37.5882C34.319 38.3374 34.7283 39.6198 34.7283 41.4355V49.9235H31.3063V41.6339C31.3063 40.726 31.1104 40.0826 30.7185 39.7036C30.3354 39.3246 29.7912 39.1351 29.0859 39.1351C28.4938 39.1351 27.954 39.3069 27.4664 39.6507C26.9875 39.9944 26.6218 40.4528 26.3692 41.0257V49.9235H22.9473Z" fill="#191919"/>
<path d="M16.0254 49.9219V30.6719H19.578V49.9219H16.0254Z" fill="#191919"/>
</svg>
