<svg width="147" height="86" viewBox="0 0 147 86" fill="none" xmlns="http://www.w3.org/2000/svg">
<path d="M0.619141 0.623047H57.2599V85.3771H0.619141V0.623047Z" fill="#C73731"/>
<path d="M125.547 67.6919V67.0399C125.547 63.916 126.486 61.4032 128.363 59.5017C130.24 57.6002 132.721 56.6494 135.805 56.6494C138.903 56.6494 141.39 57.6002 143.267 59.5017C145.145 61.4032 146.083 63.916 146.083 67.0399V67.6919C146.083 70.8294 145.145 73.349 143.267 75.2505C141.39 77.152 138.903 78.1028 135.805 78.1028C132.721 78.1028 130.24 77.152 128.363 75.2505C126.486 73.349 125.547 70.8294 125.547 67.6919ZM130.897 66.8566V67.8753C130.897 69.7632 131.313 71.2709 132.144 72.3982C132.989 73.5255 134.209 74.0892 135.805 74.0892C137.401 74.0892 138.614 73.5255 139.446 72.3982C140.29 71.2709 140.713 69.7632 140.713 67.8753V66.8566C140.713 64.9686 140.29 63.4678 139.446 62.354C138.601 61.2403 137.387 60.6834 135.805 60.6834C134.223 60.6834 133.009 61.2403 132.164 62.354C131.32 63.4678 130.897 64.9686 130.897 66.8566Z" fill="#191919"/>
<path d="M105.068 71.1962L110.057 71.2165V71.5425C110.057 72.6019 110.405 73.3693 111.103 73.8447C111.813 74.3201 112.772 74.5578 113.979 74.5578C115.172 74.5578 116.077 74.3405 116.694 73.9058C117.324 73.4712 117.64 72.86 117.64 72.0722C117.64 71.298 117.318 70.7208 116.674 70.3405C116.03 69.9466 114.676 69.5187 112.611 69.0569C110.238 68.5544 108.474 67.8073 107.321 66.8158C106.181 65.8107 105.611 64.4593 105.611 62.7615C105.611 60.8735 106.362 59.3863 107.864 58.2997C109.366 57.1995 111.411 56.6494 113.999 56.6494C116.56 56.6494 118.598 57.2131 120.114 58.3404C121.642 59.4678 122.407 61.0297 122.407 63.0263V63.3116H117.438V62.9856C117.438 62.0756 117.143 61.3965 116.553 60.9482C115.963 60.4864 115.092 60.2555 113.939 60.2555C112.826 60.2555 112.008 60.4525 111.485 60.8464C110.962 61.2267 110.7 61.7564 110.7 62.4355C110.7 63.0739 111.029 63.59 111.686 63.9839C112.343 64.3642 113.704 64.7785 115.769 65.2267C118.169 65.7292 119.953 66.4695 121.119 67.4474C122.286 68.4253 122.869 69.7904 122.869 71.5425C122.869 73.5934 122.118 75.203 120.616 76.371C119.128 77.5255 116.936 78.1028 114.039 78.1028C111.17 78.1028 108.964 77.5255 107.422 76.371C105.88 75.203 105.095 73.5663 105.068 71.461V71.1962Z" fill="#191919"/>
<path d="M83.3848 67.6919V67.0399C83.3848 63.916 84.2966 61.4032 86.1203 59.5017C87.9439 57.6002 90.3308 56.6494 93.2808 56.6494C96.2308 56.6494 98.5171 57.5459 100.14 59.3387C101.762 61.1316 102.573 63.5968 102.573 66.7343V68.5068H86.5829V65.2471H97.4042V64.9211C97.4042 63.7123 97.0622 62.6868 96.3783 61.8447C95.6945 60.989 94.6687 60.5611 93.3009 60.5611C91.7589 60.5611 90.5922 61.1384 89.8011 62.2929C89.0234 63.4338 88.6345 64.9007 88.6345 66.6936V67.8345C88.6345 69.736 89.0569 71.2641 89.9017 72.4186C90.7465 73.5731 91.9935 74.1503 93.6429 74.1503C94.7692 74.1503 95.728 73.899 96.5191 73.3965C97.3103 72.8804 97.9472 72.2556 98.43 71.5221L102.352 73.6002C101.722 74.8906 100.676 75.9636 99.2144 76.8193C97.7528 77.6749 95.9157 78.1028 93.7032 78.1028C90.4447 78.1028 87.9104 77.1588 86.1001 75.2709C84.2899 73.3693 83.3848 70.843 83.3848 67.6919Z" fill="#191919"/>
<path d="M60.0938 67.7128V67.0609C60.0938 64.0592 60.8715 61.6008 62.427 59.6856C63.9958 57.7705 66.0609 56.813 68.622 56.813C70.0166 56.813 71.2033 57.0574 72.1822 57.5464C73.1745 58.0354 73.9455 58.6737 74.4953 59.4615V46.9521H79.7048V77.5533H74.7367L74.6361 74.9251H74.5556C74.0595 75.7672 73.2952 76.487 72.2627 77.0847C71.2301 77.6687 70.0166 77.9607 68.622 77.9607C65.9804 77.9607 63.8953 77.0032 62.3666 75.0881C60.8514 73.1594 60.0938 70.701 60.0938 67.7128ZM65.444 67.7943C65.444 69.6008 65.8262 71.0881 66.5905 72.2561C67.3549 73.4106 68.5215 73.9879 70.0904 73.9879C71.1631 73.9879 72.0749 73.6891 72.8258 73.0915C73.5768 72.4938 74.1198 71.8011 74.4551 71.0133V63.6992C74.1198 62.8979 73.5835 62.212 72.846 61.6415C72.1084 61.071 71.1966 60.7858 70.1105 60.7858C68.5282 60.7858 67.3549 61.3699 66.5905 62.5379C65.8262 63.6924 65.444 65.1729 65.444 66.9794V67.7943Z" fill="#191919"/>
<path d="M35.959 77.5536V57.2208H41.0076L41.088 59.7879H41.1685C41.7451 58.8779 42.563 58.1512 43.6224 57.6079C44.6951 57.0646 45.9154 56.793 47.2831 56.793C49.3213 56.793 50.964 57.377 52.211 58.5451C53.4715 59.6996 54.1017 61.6758 54.1017 64.4738V77.5536H48.8319V64.7794C48.8319 63.3804 48.5302 62.3889 47.9268 61.8049C47.3367 61.2208 46.4987 60.9288 45.4125 60.9288C44.5007 60.9288 43.6693 61.1937 42.9184 61.7234C42.1809 62.2531 41.6177 62.9594 41.2288 63.8422V77.5536H35.959Z" fill="#191919"/>
<path d="M25.2988 77.5536V47.8896H30.7698V77.5536H25.2988Z" fill="#191919"/>
</svg>
