<svg width="166" height="50" viewBox="0 0 166 50" fill="none" xmlns="http://www.w3.org/2000/svg">
<path d="M121.577 26.5296H112.617V35.4119H108.107V14.5884H112.617V23.1178H121.577V14.5884H126.086V35.4119H121.577V26.5296Z" fill="#D82421"/>
<path d="M136.802 35.765C132.352 35.765 128.662 34.0003 128.545 29.0003H133.054C133.113 31.2356 134.401 32.5297 136.861 32.5297C138.676 32.5297 140.785 31.5885 140.785 29.5297C140.785 27.9415 139.379 27.4121 137.037 26.7062L135.572 26.2944C132.293 25.3532 129.072 24.0591 129.072 20.3532C129.072 15.7062 133.347 14.1768 137.271 14.1768C141.312 14.1768 144.767 15.5885 144.825 20.1768H140.316C140.14 18.2944 139.028 17.1768 136.919 17.1768C135.28 17.1768 133.581 18.0591 133.581 19.9415C133.581 21.4709 134.928 21.9415 137.856 22.8238L139.555 23.3532C143.127 24.4709 145.352 25.7062 145.352 29.1768C145.47 34.0003 140.902 35.765 136.802 35.765Z" fill="#D82421"/>
<path d="M147.988 14.5881H155.192C157.475 14.5881 158.354 14.647 159.291 14.8234C161.809 15.4117 163.683 17.0587 163.683 19.8823C163.683 22.5881 161.985 23.9411 159.584 24.5881C162.395 25.1175 164.503 26.5293 164.503 29.647C164.503 34.3528 159.877 35.4705 156.246 35.4705H148.105V14.5881H147.988ZM155.192 23.2352C157.183 23.2352 159.174 22.8234 159.174 20.4117C159.174 18.2352 157.3 17.7058 155.484 17.7058H152.322V23.2352H155.192ZM155.66 32.294C157.768 32.294 159.818 31.8234 159.818 29.294C159.818 26.8234 158.061 26.2352 155.894 26.2352H152.322V32.294H155.66Z" fill="#D82421"/>
<path d="M66.4098 8.35294L74.7257 0H24.9473L33.2632 8.35294H66.4098Z" fill="#D82421"/>
<path d="M24.9487 0L16.6328 8.35294H24.9487V0Z" fill="#D82421"/>
<path d="M41.521 16.6471H58.1529L66.4102 8.35303H33.2637L41.521 16.6471Z" fill="#D82421"/>
<path d="M24.9483 8.35303H16.6324L8.375 16.6471H24.9483V8.35303Z" fill="#D82421"/>
<path d="M49.8374 24.9999L58.1533 16.647H41.5215L49.8374 24.9999Z" fill="#D82421"/>
<path d="M24.9478 16.647H8.37452L0.0585938 24.9999H24.9478V16.647Z" fill="#D82421"/>
<path d="M24.9478 25H0.0585938L8.37452 33.3529H24.9478V25Z" fill="#D82421"/>
<path d="M58.1533 33.3529L49.8374 25L41.5215 33.3529H58.1533Z" fill="#D82421"/>
<path d="M24.9483 33.353H8.375L16.6324 41.6471H24.9483V33.353Z" fill="#D82421"/>
<path d="M33.2637 41.6471H66.4102L58.1529 33.353H41.521L33.2637 41.6471Z" fill="#D82421"/>
<path d="M66.4098 41.647H33.2632L24.9473 49.9999H74.7257L66.4098 41.647Z" fill="#D82421"/>
<path d="M16.6328 41.647L24.9487 49.9999V41.647H16.6328Z" fill="#D82421"/>
<path d="M74.7266 28.1762V21.8232L77.889 24.9997L74.7266 28.1762Z" fill="#D82421"/>
<path d="M74.7266 16.353V21.8236L77.889 25.0001L74.7266 28.1766V33.6471L83.3353 25.0001L74.7266 16.353Z" fill="#D82421"/>
<path d="M74.7266 10.8823V16.3529L83.3353 25L74.7266 33.647V39.1176L88.7816 25L74.7266 10.8823Z" fill="#D82421"/>
<path d="M74.7266 5.4707V10.8825L88.7816 25.0001L74.7266 39.1178V44.5295L94.228 25.0001L74.7266 5.4707Z" fill="#D82421"/>
<path d="M74.7266 0V5.47059L94.228 25L74.7266 44.5294V50L99.6158 25.0588L74.7266 0Z" fill="#D82421"/>
</svg>
