<svg width="77" height="60" viewBox="0 0 77 60" fill="none" xmlns="http://www.w3.org/2000/svg">
<path d="M44.7388 13.6389C44.7388 10.5841 42.2436 8.10767 39.1655 8.10767C36.0875 8.10767 33.5923 10.5841 33.5923 13.6389C33.5923 15.2508 34.2869 16.7016 35.3954 17.7126M43.7553 21.4724C47.0267 22.8147 49.3286 26.0129 49.3286 29.7447C49.3286 34.6863 45.2922 38.6923 40.313 38.6923C36.246 38.6923 32.808 36.0197 31.6848 32.3476M27.3633 32.3476V17.7126L38.6738 32.3476M27.3633 13.6389L39.1655 28.6059V13.6389" stroke="#A57268" stroke-width="2"/>
<path d="M70.5822 48.1944C70.5822 49.411 70.3234 50.316 69.8058 50.9096C69.2924 51.5031 68.5392 51.7999 67.5461 51.7999C66.5951 51.7999 65.8629 51.5031 65.3495 50.9096C65.0928 50.6107 64.895 50.2361 64.7561 49.7856C64.6173 49.331 64.5479 48.8006 64.5479 48.1944C64.5479 46.9863 64.8024 46.0876 65.3116 45.4983C65.825 44.9089 66.5824 44.6143 67.5839 44.6143C68.5434 44.6143 69.2777 44.9068 69.7869 45.4919C70.0478 45.7866 70.2455 46.1591 70.3802 46.6096C70.5148 47.06 70.5822 47.5883 70.5822 48.1944ZM65.7976 48.1944C65.7976 48.6743 65.8292 49.0974 65.8923 49.4636C65.9554 49.8256 66.0585 50.1308 66.2016 50.3792C66.4835 50.8801 66.9401 51.1306 67.5713 51.1306C68.1983 51.1306 68.6528 50.8801 68.9347 50.3792C69.0736 50.1308 69.1725 49.8256 69.2314 49.4636C69.2945 49.0974 69.3261 48.6743 69.3261 48.1944C69.3261 47.7146 69.2945 47.2936 69.2314 46.9316C69.1683 46.5696 69.0673 46.2665 68.9284 46.0223C68.6465 45.5382 68.1899 45.2962 67.5587 45.2962C66.9317 45.2962 66.4772 45.5382 66.1953 46.0223C66.0564 46.2665 65.9554 46.5696 65.8923 46.9316C65.8292 47.2936 65.7976 47.7146 65.7976 48.1944Z" fill="#B0B0B0"/>
<path d="M61.039 42.6442C61.039 42.358 61.1042 42.1538 61.2347 42.0317C61.3693 41.9097 61.5503 41.8486 61.7775 41.8486C61.9963 41.8486 62.1731 41.9097 62.3077 42.0317C62.4424 42.1538 62.5097 42.358 62.5097 42.6442C62.5097 42.9263 62.4424 43.1304 62.3077 43.2567C62.1731 43.383 61.9963 43.4461 61.7775 43.4461C61.5503 43.4461 61.3693 43.383 61.2347 43.2567C61.1042 43.1304 61.039 42.9263 61.039 42.6442ZM59.9912 51.6736V51.1306H60.1616C60.4814 51.1306 60.7381 51.0759 60.9317 50.9664C61.1253 50.857 61.2221 50.6234 61.2221 50.2656V46.1676C61.2221 45.8056 61.1232 45.5677 60.9254 45.4541C60.7276 45.3404 60.473 45.2836 60.1616 45.2836H60.1238V44.7406H62.434V50.2024C62.434 50.5855 62.5308 50.8359 62.7243 50.9538C62.9179 51.0717 63.1746 51.1306 63.4944 51.1306H63.6648V51.6736H59.9912Z" fill="#B0B0B0"/>
<path d="M55.9132 41.8486H58.2928V50.2529C58.2928 50.6149 58.3917 50.8528 58.5895 50.9664C58.7873 51.0759 59.0419 51.1306 59.3532 51.1306H59.4606V51.6736H57.2703L57.1314 50.5118H57.0809C56.8831 50.9159 56.6243 51.2316 56.3045 51.4589C55.9889 51.6863 55.5871 51.7999 55.0989 51.7999C54.2363 51.7999 53.584 51.5116 53.1422 50.9349C52.6919 50.3497 52.4668 49.4447 52.4668 48.2197C52.4668 46.9821 52.6919 46.0687 53.1422 45.4793C53.584 44.9026 54.2363 44.6143 55.0989 44.6143C55.5702 44.6143 55.97 44.7153 56.2982 44.9174C56.6264 45.1194 56.8873 45.3973 57.0809 45.7509H57.1567L57.1188 45.1573C57.1146 45.0773 57.1104 44.9973 57.1062 44.9174C57.1019 44.8374 57.0977 44.7574 57.0935 44.6774C57.0893 44.5974 57.0851 44.5301 57.0809 44.4754C57.0809 44.4164 57.0809 44.368 57.0809 44.3301V43.2693C57.0809 42.9073 56.982 42.6716 56.7842 42.5621C56.5865 42.4485 56.3319 42.3917 56.0205 42.3917H55.9132V41.8486ZM55.3198 50.9728C55.9721 50.9728 56.435 50.7475 56.7085 50.2971C56.8432 50.0698 56.9378 49.7836 56.9925 49.4384C57.0515 49.0932 57.0809 48.687 57.0809 48.2197C57.0809 47.7693 57.0515 47.3715 56.9925 47.0263C56.9378 46.6769 56.8432 46.3865 56.7085 46.155C56.5696 45.9192 56.3866 45.7424 56.1593 45.6246C55.9321 45.5025 55.6481 45.4415 55.3072 45.4415C54.7518 45.4415 54.3457 45.6814 54.089 46.1613C53.9585 46.397 53.8639 46.6896 53.805 47.039C53.746 47.3841 53.7166 47.7819 53.7166 48.2324C53.7166 49.15 53.8407 49.8362 54.089 50.2908C54.3373 50.7454 54.7476 50.9728 55.3198 50.9728Z" fill="#B0B0B0"/>
<path d="M48.0476 44.7402H50.3578V50.2652C50.3578 50.623 50.4546 50.8567 50.6481 50.9661C50.8417 51.0755 51.0984 51.1303 51.4182 51.1303H51.4561V51.6733H49.4047L49.2342 50.6251H49.1711C48.9271 51.084 48.6262 51.3955 48.2685 51.5596C47.9108 51.7196 47.5132 51.7996 47.0755 51.7996C46.3728 51.7996 45.8468 51.5996 45.4975 51.1997C45.1272 50.7788 44.942 50.1347 44.942 49.2676V46.1673C44.942 45.8052 44.8432 45.5674 44.6454 45.4537C44.4476 45.3401 44.193 45.2833 43.8816 45.2833H43.8438V44.7402H46.1603V49.2044C46.1603 49.7685 46.255 50.2042 46.4443 50.5115C46.6379 50.8188 46.9956 50.9724 47.5174 50.9724C47.8035 50.9724 48.0497 50.9219 48.2559 50.8209C48.4621 50.7156 48.6304 50.5725 48.7608 50.3915C48.8955 50.2063 48.9923 49.9874 49.0512 49.7348C49.1143 49.478 49.1459 49.1939 49.1459 48.8824V46.2178C49.1459 45.8305 49.0491 45.5779 48.8555 45.4601C48.6662 45.3422 48.4095 45.2833 48.0854 45.2833H48.0476V44.7402Z" fill="#B0B0B0"/>
<path d="M42.4196 51.118C42.5753 51.118 42.7183 51.1096 42.8488 51.0928C42.9792 51.0759 43.1118 51.0549 43.2464 51.0296V51.5979C43.1286 51.6526 42.954 51.6989 42.7225 51.7368C42.4953 51.7789 42.287 51.8 42.0976 51.8C41.437 51.8 40.9615 51.6526 40.6711 51.358C40.3723 51.0549 40.223 50.535 40.223 49.7983V45.4794H39.2383V44.9616C39.394 44.9616 39.5644 44.93 39.7496 44.8669C39.9389 44.8038 40.1051 44.6985 40.2482 44.5512C40.3955 44.3912 40.5133 44.2018 40.6017 43.9829C40.6943 43.7598 40.7742 43.482 40.8415 43.1494H41.4349V44.7406H43.1265V45.4794H41.4349V49.8362C41.4349 50.2782 41.5232 50.6024 41.7 50.8086C41.8809 51.0149 42.1208 51.118 42.4196 51.118Z" fill="#B0B0B0"/>
<path d="M35.8718 51.8C35.2069 51.8 34.6893 51.6842 34.319 51.4527C33.9319 51.2169 33.7383 50.876 33.7383 50.4298C33.7383 50.1183 33.8245 49.8931 33.9971 49.7541C34.1738 49.611 34.359 49.5395 34.5525 49.5395C34.5525 50.0109 34.6577 50.4024 34.8681 50.7139C35.0785 51.0254 35.4383 51.1812 35.9475 51.1812C36.3851 51.1812 36.7323 51.078 36.989 50.8718C37.2457 50.6613 37.374 50.3729 37.374 50.0067C37.374 49.8467 37.3509 49.7099 37.3046 49.5963C37.2583 49.4784 37.1741 49.369 37.0521 49.2679C36.9343 49.1669 36.7702 49.0638 36.5598 48.9585C36.3536 48.8533 36.0948 48.7333 35.7834 48.5986C35.451 48.4513 35.1606 48.3103 34.9123 48.1756C34.6683 48.0367 34.4663 47.8872 34.3064 47.7273C34.1465 47.5673 34.0265 47.3863 33.9466 47.1842C33.8666 46.978 33.8266 46.7338 33.8266 46.4518C33.8266 45.8667 34.0497 45.4141 34.4957 45.0942C34.9376 44.7827 35.5267 44.627 36.2631 44.627C36.5703 44.627 36.8417 44.6585 37.0774 44.7217C37.313 44.7806 37.5108 44.8648 37.6707 44.9742C37.9905 45.1889 38.1504 45.4689 38.1504 45.814C38.1504 46.0498 38.0683 46.2392 37.9042 46.3823C37.7443 46.5212 37.515 46.5907 37.2162 46.5907C37.2162 46.1571 37.1257 45.8203 36.9448 45.5804C36.7681 45.3405 36.4882 45.2205 36.1053 45.2205C35.6971 45.2205 35.3899 45.311 35.1837 45.492C34.9775 45.673 34.8745 45.9277 34.8745 46.256C34.8745 46.5675 34.9986 46.8201 35.2469 47.0137C35.3731 47.1148 35.5372 47.2137 35.7392 47.3105C35.9454 47.4031 36.1916 47.5084 36.4777 47.6262C36.8186 47.7694 37.111 47.9104 37.3551 48.0493C37.6034 48.1882 37.8053 48.3397 37.961 48.5039C38.2682 48.8238 38.4218 49.2469 38.4218 49.7731C38.4218 50.1098 38.3608 50.4045 38.2388 50.6571C38.1167 50.9054 37.9442 51.1159 37.7212 51.2885C37.2751 51.6295 36.6587 51.8 35.8718 51.8Z" fill="#B0B0B0"/>
<path d="M25.958 51.6736V51.1306H26.1221C26.4461 51.1306 26.7028 51.0717 26.8922 50.9538C27.0858 50.8359 27.1825 50.5855 27.1825 50.2024V43.2693C27.1825 42.9073 27.0837 42.6716 26.8859 42.5621C26.6881 42.4485 26.4335 42.3917 26.1221 42.3917H25.958V41.8486H28.4008V50.2024C28.4008 50.5813 28.4955 50.8317 28.6848 50.9538C28.8784 51.0717 29.1372 51.1306 29.4612 51.1306H29.6253V51.6736H25.958Z" fill="#B0B0B0"/>
<path d="M22.9882 42.6442C22.9882 42.358 23.0535 42.1538 23.1839 42.0317C23.3186 41.9097 23.4995 41.8486 23.7267 41.8486C23.9456 41.8486 24.1223 41.9097 24.257 42.0317C24.3916 42.1538 24.4589 42.358 24.4589 42.6442C24.4589 42.9263 24.3916 43.1304 24.257 43.2567C24.1223 43.383 23.9456 43.4461 23.7267 43.4461C23.4995 43.4461 23.3186 43.383 23.1839 43.2567C23.0535 43.1304 22.9882 42.9263 22.9882 42.6442ZM21.9404 51.6736V51.1306H22.1109C22.4307 51.1306 22.6874 51.0759 22.8809 50.9664C23.0745 50.857 23.1713 50.6234 23.1713 50.2656V46.1676C23.1713 45.8056 23.0724 45.5677 22.8746 45.4541C22.6768 45.3404 22.4222 45.2836 22.1109 45.2836H22.073V44.7406H24.3832V50.2024C24.3832 50.5855 24.48 50.8359 24.6735 50.9538C24.8671 51.0717 25.1238 51.1306 25.4436 51.1306H25.614V51.6736H21.9404Z" fill="#B0B0B0"/>
<path d="M17.8273 45.2583C17.3518 45.2583 17.0362 45.3846 16.8805 45.6372C16.7248 45.8855 16.647 46.2286 16.647 46.6664C16.2893 46.6664 16.0158 46.6054 15.8264 46.4833C15.6413 46.3612 15.5487 46.1507 15.5487 45.8519C15.5487 45.6288 15.6097 45.4393 15.7317 45.2836C15.8538 45.1278 16.0221 44.9994 16.2367 44.8984C16.4471 44.8016 16.6933 44.73 16.9752 44.6837C17.2572 44.6374 17.558 44.6143 17.8778 44.6143C18.2734 44.6143 18.6185 44.6542 18.913 44.7342C19.2076 44.81 19.4538 44.9363 19.6515 45.1131C20.0471 45.4667 20.2449 46.0455 20.2449 46.8495V50.2024C20.2449 50.5476 20.3038 50.7896 20.4216 50.9285C20.5394 51.0632 20.7477 51.1306 21.0465 51.1306H21.0844V51.6736H19.3359L19.1339 50.5623H19.0266C18.8373 50.8149 18.6542 51.0338 18.4775 51.219C18.3008 51.4042 18.0988 51.5473 17.8715 51.6484C17.6443 51.7494 17.3582 51.7999 17.0131 51.7999C16.7269 51.7999 16.4597 51.7578 16.2115 51.6736C15.9674 51.5894 15.757 51.4631 15.5803 51.2948C15.3993 51.1222 15.2583 50.9075 15.1573 50.6507C15.0564 50.3939 15.0059 50.0887 15.0059 49.7351C15.0059 49.049 15.2499 48.5396 15.7381 48.2071C16.2262 47.8745 16.9647 47.6935 17.9536 47.664L19.0266 47.6262V46.8495C19.0266 46.5212 18.9972 46.2391 18.9383 46.0034C18.8836 45.7635 18.7699 45.5803 18.5974 45.4541C18.4291 45.3236 18.1724 45.2583 17.8273 45.2583ZM16.262 49.7983C16.262 50.6023 16.6112 51.0043 17.3098 51.0043C17.84 51.0043 18.2587 50.8422 18.5659 50.5181C18.873 50.1898 19.0266 49.752 19.0266 49.2047V48.1566L18.1998 48.1944C17.4928 48.2239 16.9878 48.3712 16.6849 48.6364C16.5334 48.7669 16.424 48.9311 16.3566 49.129C16.2935 49.3226 16.262 49.5457 16.262 49.7983Z" fill="#B0B0B0"/>
<path d="M9.81605 51.1306H9.85392V51.6736H6.37598V51.1306H6.48328C6.8073 51.1306 7.06399 51.0716 7.25335 50.9538C7.44692 50.8359 7.54371 50.5854 7.54371 50.2024V46.1676C7.54371 45.8055 7.44482 45.5677 7.24704 45.4541C7.04926 45.3404 6.79468 45.2836 6.48328 45.2836H6.44541V44.7405H8.5347L8.70512 45.7887H8.76825C9.02914 45.3257 9.3195 45.0142 9.63931 44.8542C9.95912 44.6942 10.3421 44.6143 10.7881 44.6143C11.4782 44.6143 12.0105 44.8142 12.3851 45.2141C12.768 45.6351 12.9594 46.2791 12.9594 47.1463V50.2024C12.9594 50.5812 13.0436 50.8317 13.2119 50.9538C13.3845 51.0716 13.6306 51.1306 13.9504 51.1306H13.9946V51.6736H11.7412V47.2094C11.7412 46.6453 11.636 46.2097 11.4256 45.9024C11.2152 45.5951 10.847 45.4414 10.321 45.4414C10.0264 45.4414 9.77817 45.4983 9.57619 45.6119C9.37841 45.7256 9.21851 45.8792 9.09647 46.0729C8.97444 46.2665 8.88607 46.4896 8.83137 46.7422C8.78087 46.9947 8.75562 47.2599 8.75562 47.5378V50.2655C8.75562 50.6233 8.85241 50.857 9.04598 50.9664C9.23955 51.0759 9.49624 51.1306 9.81605 51.1306Z" fill="#B0B0B0"/>
</svg>
