<svg width="22" height="22" viewBox="0 0 22 22" fill="none" xmlns="http://www.w3.org/2000/svg">
<path d="M1.86879 1H6.83333C7.05022 1.01267 7.2549 1.10453 7.40852 1.25815C7.56214 1.41177 7.654 1.61645 7.66667 1.83333C7.63867 2.96989 7.82825 4.10131 8.22518 5.16667C8.39968 5.52276 8.43925 5.93003 8.33657 6.31306C8.23388 6.69609 7.9959 7.02895 7.66667 7.25L5.89362 9.02305C6.66839 10.5336 7.68001 11.9104 8.89007 13.1011C10.0923 14.304 11.4703 15.3174 12.977 16.1064L14.75 14.3333C14.9711 14.0041 15.3039 13.7661 15.6869 13.6634C16.07 13.5607 16.4772 13.6003 16.8333 13.7748C17.8987 14.1718 19.0301 14.3613 20.1667 14.3333C20.3836 14.346 20.5882 14.4379 20.7419 14.5915C20.8955 14.7451 20.9873 14.9498 21 15.1667V20.1667C20.9873 20.3836 20.8955 20.5882 20.7419 20.7419C20.5882 20.8955 20.3836 20.9873 20.1667 21C15.1441 20.8007 10.3812 18.7151 6.82857 15.1591C3.2759 11.6031 1.19461 6.83839 1 1.8156C1.0168 1.60187 1.11049 1.40147 1.26371 1.25152C1.41692 1.10156 1.61929 1.0122 1.83333 1H1.86879Z" stroke="#C73731" stroke-linecap="round" stroke-linejoin="round"/>
<mask id="path-2-inside-1_225_2357" fill="white">
<path d="M10.9699 2.79903C11.013 2.78161 11.0591 2.77288 11.1055 2.77335V2.77246C13.1968 2.77246 14.9752 3.47902 16.3785 4.85048C17.0986 5.59441 17.6599 6.477 18.0282 7.44459C18.3966 8.41219 18.5643 9.44458 18.5213 10.479C18.5203 10.5726 18.4824 10.662 18.4159 10.7278C18.3493 10.7936 18.2594 10.8303 18.1658 10.8301V10.8443C17.9672 10.8443 17.8103 10.6829 17.8103 10.4888C17.7863 8.29108 17.1587 6.61023 15.8706 5.35934C15.2397 4.74709 14.4938 4.2658 13.6759 3.94323C12.8581 3.62066 11.9845 3.46319 11.1055 3.47991C10.9113 3.47991 10.75 3.32299 10.75 3.12441C10.7501 3.07797 10.7594 3.03201 10.7774 2.98917C10.7953 2.94634 10.8216 2.90749 10.8546 2.87486C10.8877 2.84222 10.9269 2.81645 10.9699 2.79903Z"/>
<path d="M11.7234 5.35048C11.2482 5.35048 11.2482 4.63948 11.719 4.63948H11.7695C13.3076 4.74498 14.5124 5.27601 15.3759 6.22282C16.2349 7.16962 16.6729 8.35136 16.641 9.76005C16.6403 9.85412 16.6026 9.94414 16.5361 10.0107C16.4695 10.0772 16.3795 10.1149 16.2855 10.1155L16.2713 10.0969C16.1779 10.0965 16.0884 10.0595 16.022 9.99387C15.9555 9.92826 15.9174 9.83923 15.9158 9.74587C15.951 9.19416 15.8752 8.64099 15.6928 8.11913C15.5103 7.59727 15.225 7.11733 14.8537 6.70775C14.4467 6.28696 13.9607 5.9505 13.4236 5.71761C12.8865 5.48473 12.3088 5.35997 11.7234 5.35048Z"/>
<path d="M12.2784 7.27601C11.7979 7.26182 11.8165 6.53665 12.3014 6.55083V6.55172H12.3156C13.8484 6.63416 14.7119 7.52601 14.7952 9.10934C14.7981 9.1567 14.7915 9.20416 14.7758 9.24895C14.7601 9.29373 14.7357 9.33495 14.7039 9.37019C14.6722 9.40543 14.6337 9.43398 14.5908 9.45419C14.5478 9.4744 14.5013 9.48585 14.4539 9.48789H14.4397C14.3475 9.48744 14.2591 9.45091 14.1935 9.38613C14.1279 9.32134 14.0903 9.23345 14.0887 9.14126C14.0142 7.92672 13.4468 7.33629 12.2784 7.27601Z"/>
</mask>
<path d="M10.9699 2.79903C11.013 2.78161 11.0591 2.77288 11.1055 2.77335V2.77246C13.1968 2.77246 14.9752 3.47902 16.3785 4.85048C17.0986 5.59441 17.6599 6.477 18.0282 7.44459C18.3966 8.41219 18.5643 9.44458 18.5213 10.479C18.5203 10.5726 18.4824 10.662 18.4159 10.7278C18.3493 10.7936 18.2594 10.8303 18.1658 10.8301V10.8443C17.9672 10.8443 17.8103 10.6829 17.8103 10.4888C17.7863 8.29108 17.1587 6.61023 15.8706 5.35934C15.2397 4.74709 14.4938 4.2658 13.6759 3.94323C12.8581 3.62066 11.9845 3.46319 11.1055 3.47991C10.9113 3.47991 10.75 3.32299 10.75 3.12441C10.7501 3.07797 10.7594 3.03201 10.7774 2.98917C10.7953 2.94634 10.8216 2.90749 10.8546 2.87486C10.8877 2.84222 10.9269 2.81645 10.9699 2.79903Z" fill="#C73731"/>
<path d="M11.7234 5.35048C11.2482 5.35048 11.2482 4.63948 11.719 4.63948H11.7695C13.3076 4.74498 14.5124 5.27601 15.3759 6.22282C16.2349 7.16962 16.6729 8.35136 16.641 9.76005C16.6403 9.85412 16.6026 9.94414 16.5361 10.0107C16.4695 10.0772 16.3795 10.1149 16.2855 10.1155L16.2713 10.0969C16.1779 10.0965 16.0884 10.0595 16.022 9.99387C15.9555 9.92826 15.9174 9.83923 15.9158 9.74587C15.951 9.19416 15.8752 8.64099 15.6928 8.11913C15.5103 7.59727 15.225 7.11733 14.8537 6.70775C14.4467 6.28696 13.9607 5.9505 13.4236 5.71761C12.8865 5.48473 12.3088 5.35997 11.7234 5.35048Z" fill="#C73731"/>
<path d="M12.2784 7.27601C11.7979 7.26182 11.8165 6.53665 12.3014 6.55083V6.55172H12.3156C13.8484 6.63416 14.7119 7.52601 14.7952 9.10934C14.7981 9.1567 14.7915 9.20416 14.7758 9.24895C14.7601 9.29373 14.7357 9.33495 14.7039 9.37019C14.6722 9.40543 14.6337 9.43398 14.5908 9.45419C14.5478 9.4744 14.5013 9.48585 14.4539 9.48789H14.4397C14.3475 9.48744 14.2591 9.45091 14.1935 9.38613C14.1279 9.32134 14.0903 9.23345 14.0887 9.14126C14.0142 7.92672 13.4468 7.33629 12.2784 7.27601Z" fill="#C73731"/>
<path d="M11.1055 2.77335L11.0954 3.7733L12.1055 3.78348V2.77335H11.1055ZM10.8546 2.87486L10.152 2.16333L10.152 2.16333L10.8546 2.87486ZM10.7774 2.98917L9.85518 2.60246L9.85518 2.60246L10.7774 2.98917ZM10.75 3.12441L9.75 3.12194V3.12441H10.75ZM11.1055 3.47991V4.47991H11.115L11.1245 4.47973L11.1055 3.47991ZM13.6759 3.94323L14.0428 3.01297L14.0428 3.01297L13.6759 3.94323ZM15.8706 5.35934L16.5672 4.64194L16.567 4.6417L15.8706 5.35934ZM17.8103 10.4888H18.8103L18.8102 10.4779L17.8103 10.4888ZM18.1658 10.8443V11.8443H19.1658V10.8443H18.1658ZM18.1658 10.8301L18.1683 9.83009L17.1658 9.82754V10.8301H18.1658ZM18.4159 10.7278L19.1185 11.4393L19.1185 11.4393L18.4159 10.7278ZM18.5213 10.479L17.5221 10.4374L17.5215 10.4532L17.5213 10.469L18.5213 10.479ZM18.0282 7.44459L17.0936 7.80037L18.0282 7.44459ZM16.3785 4.85048L17.0971 4.155L17.0874 4.145L17.0775 4.13528L16.3785 4.85048ZM11.1055 2.77246V1.77246H10.1055V2.77246H11.1055ZM11.7234 5.35048L11.7396 4.35061L11.7315 4.35048H11.7234V5.35048ZM13.4236 5.71761L13.8214 4.80014L13.4236 5.71761ZM14.8537 6.70775L15.5946 6.03611L15.5837 6.02412L15.5725 6.01249L14.8537 6.70775ZM15.6928 8.11913L16.6368 7.78913L16.6368 7.78913L15.6928 8.11913ZM15.9158 9.74587L14.9178 9.68209L14.9152 9.72262L14.9159 9.76323L15.9158 9.74587ZM16.2713 10.0969L17.0667 9.49091L16.7684 9.09931L16.2761 9.09694L16.2713 10.0969ZM16.2855 10.1155L15.49 10.7216L15.793 11.1192L16.2929 11.1155L16.2855 10.1155ZM16.5361 10.0107L17.2432 10.7178L17.2432 10.7178L16.5361 10.0107ZM16.641 9.76005L15.6412 9.7374L15.641 9.74502L15.641 9.75265L16.641 9.76005ZM15.3759 6.22282L16.1165 5.55087L16.1148 5.54897L15.3759 6.22282ZM11.7695 4.63948L11.8379 3.64183L11.8038 3.63948H11.7695V4.63948ZM12.3014 6.55083H13.3014V5.57965L12.3307 5.55126L12.3014 6.55083ZM12.2784 7.27601L12.3299 6.27734L12.3189 6.27677L12.3079 6.27644L12.2784 7.27601ZM14.0887 9.14126L15.0885 9.12368L15.0881 9.10185L15.0868 9.08006L14.0887 9.14126ZM14.4397 9.48789L14.4348 10.4879H14.4397V9.48789ZM14.4539 9.48789V10.4879H14.4753L14.4967 10.487L14.4539 9.48789ZM14.5908 9.45419L14.1649 8.54942L14.1648 8.54943L14.5908 9.45419ZM14.7758 9.24895L13.8319 8.91866L13.8319 8.91866L14.7758 9.24895ZM14.7952 9.10934L13.7966 9.1619L13.797 9.16981L14.7952 9.10934ZM12.3156 6.55172L12.3693 5.55316L12.3425 5.55172H12.3156V6.55172ZM12.3014 6.55172H11.3014V7.55172H12.3014V6.55172ZM11.1156 1.7734C10.9372 1.7716 10.7602 1.80513 10.5948 1.87205L11.345 3.72601C11.2658 3.75809 11.1809 3.77416 11.0954 3.7733L11.1156 1.7734ZM10.5948 1.87205C10.4294 1.93898 10.2789 2.03797 10.152 2.16333L11.5573 3.58639C11.4965 3.64648 11.4243 3.69393 11.345 3.72601L10.5948 1.87205ZM10.152 2.16333C10.025 2.28869 9.92418 2.43793 9.85518 2.60246L11.6996 3.37589C11.6665 3.45475 11.6182 3.52629 11.5573 3.58639L10.152 2.16333ZM9.85518 2.60246C9.78619 2.76698 9.75044 2.94353 9.75 3.12194L11.75 3.12688C11.7498 3.2124 11.7326 3.29703 11.6996 3.37589L9.85518 2.60246ZM9.75 3.12441C9.75 3.88338 10.3672 4.47991 11.1055 4.47991V2.47991C11.4555 2.47991 11.75 2.76261 11.75 3.12441H9.75ZM11.1245 4.47973C11.8715 4.46552 12.614 4.59935 13.309 4.87349L14.0428 3.01297C13.1022 2.64197 12.0974 2.46086 11.0865 2.48009L11.1245 4.47973ZM13.309 4.87349C14.0041 5.14762 14.638 5.55665 15.1742 6.07698L16.567 4.6417C15.8413 3.93752 14.9835 3.38397 14.0428 3.01297L13.309 4.87349ZM15.1739 6.07674C16.2268 7.09916 16.7886 8.50005 16.8103 10.4997L18.8102 10.4779C18.7841 8.08211 18.0906 6.12129 16.5672 4.64194L15.1739 6.07674ZM16.8103 10.4888C16.8103 11.2271 17.4068 11.8443 18.1658 11.8443V9.84427C18.5276 9.84427 18.8103 10.1388 18.8103 10.4888H16.8103ZM19.1658 10.8443V10.8301H17.1658V10.8443H19.1658ZM18.1632 11.8301C18.5207 11.831 18.8641 11.6905 19.1185 11.4393L17.7132 10.0163C17.8344 9.89657 17.998 9.82966 18.1683 9.83009L18.1632 11.8301ZM19.1185 11.4393C19.3729 11.1881 19.5177 10.8465 19.5212 10.489L17.5213 10.469C17.523 10.2987 17.592 10.136 17.7132 10.0163L19.1185 11.4393ZM19.5204 10.5206C19.5691 9.3507 19.3794 8.18311 18.9628 7.08881L17.0936 7.80037C17.4138 8.64126 17.5595 9.53846 17.5221 10.4374L19.5204 10.5206ZM18.9628 7.08881C18.5462 5.99451 17.9114 4.99635 17.0971 4.155L15.66 5.54596C16.2858 6.19247 16.7735 6.95949 17.0936 7.80037L18.9628 7.08881ZM17.0775 4.13528C15.4762 2.57047 13.4422 1.77246 11.1055 1.77246V3.77246C12.9514 3.77246 14.4741 4.38757 15.6796 5.56567L17.0775 4.13528ZM10.1055 2.77246V2.77335H12.1055V2.77246H10.1055ZM11.719 3.63948C11.3276 3.63948 10.9615 3.79742 10.7042 4.08921C10.4635 4.36216 10.3655 4.69686 10.3665 4.9981C10.3674 5.29957 10.4676 5.63357 10.7098 5.9051C10.9684 6.19494 11.334 6.35048 11.7234 6.35048V4.35048C11.8752 4.35048 12.0626 4.41714 12.2022 4.57366C12.3256 4.71189 12.3661 4.86814 12.3665 4.99186C12.3668 5.11535 12.3274 5.2723 12.2043 5.41194C12.0646 5.57042 11.8749 5.63948 11.719 5.63948V3.63948ZM11.7072 6.35034C12.1612 6.35771 12.6092 6.45446 13.0258 6.63508L13.8214 4.80014C13.1638 4.51499 12.4564 4.36223 11.7396 4.35061L11.7072 6.35034ZM13.0258 6.63508C13.4424 6.8157 13.8193 7.07665 14.135 7.403L15.5725 6.01249C15.0741 5.49726 14.4791 5.0853 13.8214 4.80014L13.0258 6.63508ZM14.1128 7.37938C14.3943 7.68982 14.6105 8.05358 14.7488 8.44912L16.6368 7.78913C16.4102 7.14095 16.0558 6.54484 15.5946 6.03611L14.1128 7.37938ZM14.7488 8.44912C14.8871 8.84466 14.9445 9.26393 14.9178 9.68209L16.9137 9.80964C16.9575 9.12439 16.8633 8.43732 16.6368 7.78913L14.7488 8.44912ZM14.9159 9.76323C14.9221 10.1179 15.0669 10.4561 15.3193 10.7054L16.7246 9.28234C16.8441 9.40038 16.9127 9.56053 16.9156 9.7285L14.9159 9.76323ZM15.3193 10.7054C15.5717 10.9547 15.9117 11.0952 16.2665 11.0969L16.2761 9.09694C16.4441 9.09775 16.6051 9.1643 16.7246 9.28234L15.3193 10.7054ZM15.4758 10.7029L15.49 10.7216L17.0809 9.50953L17.0667 9.49091L15.4758 10.7029ZM16.2929 11.1155C16.6496 11.1129 16.9909 10.97 17.2432 10.7178L15.829 9.30355C15.9482 9.18434 16.1095 9.11682 16.2781 9.11557L16.2929 11.1155ZM17.2432 10.7178C17.4954 10.4655 17.6383 10.1242 17.6409 9.76745L15.641 9.75265C15.6422 9.58407 15.7098 9.42275 15.829 9.30355L17.2432 10.7178ZM17.6407 9.7827C17.6781 8.13347 17.1579 6.69873 16.1165 5.55087L14.6353 6.89476C15.3119 7.64052 15.6677 8.56926 15.6412 9.7374L17.6407 9.7827ZM16.1148 5.54897C15.0446 4.37558 13.5792 3.76125 11.8379 3.64183L11.7011 5.63714C13.0361 5.7287 13.9802 6.17643 14.637 6.89666L16.1148 5.54897ZM11.7695 3.63948H11.719V5.63948H11.7695V3.63948ZM12.3307 5.55126C11.9391 5.5398 11.5666 5.68535 11.2981 5.97014C11.0465 6.23695 10.937 6.57077 10.9283 6.87406C10.9196 7.17723 11.0096 7.5156 11.2435 7.79565C11.4932 8.09472 11.8556 8.26396 12.2489 8.27557L12.3079 6.27644C12.4609 6.28096 12.6454 6.35423 12.7787 6.51379C12.896 6.65432 12.9309 6.80963 12.9274 6.9315C12.9239 7.0535 12.88 7.20779 12.7532 7.34218C12.6096 7.49454 12.4213 7.55476 12.2722 7.5504L12.3307 5.55126ZM12.2268 8.27468C12.6583 8.29694 12.8131 8.40712 12.8753 8.47139C12.9448 8.54314 13.0613 8.72622 13.0905 9.20245L15.0868 9.08006C15.0415 8.34175 14.8371 7.62235 14.3122 7.08018C13.78 6.53053 13.0669 6.31536 12.3299 6.27734L12.2268 8.27468ZM13.0888 9.15883C13.095 9.51231 13.2394 9.84932 13.4909 10.0977L14.8961 8.67454C15.0165 8.79337 15.0855 8.95458 15.0885 9.12368L13.0888 9.15883ZM13.4909 10.0977C13.7425 10.3461 14.0813 10.4862 14.4348 10.4879L14.4446 8.4879C14.6137 8.48872 14.7758 8.55571 14.8961 8.67454L13.4909 10.0977ZM14.4397 10.4879H14.4539V8.48789H14.4397V10.4879ZM14.4967 10.487C14.6768 10.4792 14.8536 10.4357 15.0167 10.359L14.1648 8.54943C14.2421 8.51307 14.3258 8.49246 14.4111 8.4888L14.4967 10.487ZM15.0167 10.359C15.1798 10.2822 15.3259 10.1737 15.4466 10.0398L13.9612 8.70055C14.0184 8.63716 14.0876 8.58578 14.1649 8.54942L15.0167 10.359ZM15.4466 10.0398C15.5673 9.90596 15.6602 9.74938 15.7197 9.57923L13.8319 8.91866C13.8601 8.83808 13.9041 8.76394 13.9612 8.70055L15.4466 10.0398ZM15.7197 9.57924C15.7792 9.40908 15.8043 9.22878 15.7934 9.04887L13.797 9.16981C13.7919 9.08463 13.8037 8.99925 13.8319 8.91866L15.7197 9.57924ZM15.7938 9.05678C15.7433 8.09757 15.4482 7.22302 14.8171 6.57175C14.1819 5.91641 13.3201 5.6043 12.3693 5.55316L12.2619 7.55027C12.8439 7.58158 13.1802 7.75662 13.3809 7.96364C13.5854 8.17474 13.7637 8.53778 13.7966 9.1619L15.7938 9.05678ZM12.3156 5.55172H12.3014V7.55172H12.3156V5.55172ZM13.3014 6.55172V6.55083H11.3014V6.55172H13.3014Z" fill="#C73731" mask="url(#path-2-inside-1_225_2357)"/>
</svg>
