<svg width="26" height="22" viewBox="0 0 26 22" fill="none" xmlns="http://www.w3.org/2000/svg">
<path d="M23.9189 1C24.6585 1 25.2164 1.6444 24.918 2.84299L21.298 19.7908C21.045 20.9958 20.3119 21.2858 19.2998 20.7251L10.6649 14.3907C10.6314 14.3668 10.6041 14.3354 10.5853 14.2989C10.5665 14.2625 10.5567 14.2222 10.5567 14.1812C10.5567 14.1403 10.5665 14.1 10.5853 14.0635C10.6041 14.0271 10.6314 13.9957 10.6649 13.9718L20.6362 5.02751C21.0904 4.62798 20.5389 4.43466 19.9421 4.79553L7.42762 12.6379C7.38967 12.6625 7.34657 12.6782 7.30161 12.6837C7.25665 12.6893 7.211 12.6847 7.16812 12.6701L1.85483 11.0011C0.674097 10.6596 0.674097 9.85408 2.12082 9.28056L23.3805 1.13532C23.5491 1.05498 23.7321 1.00897 23.9189 1V1Z" stroke="#C73731" stroke-linecap="round" stroke-linejoin="round"/>
</svg>
