<svg width="31" height="18" viewBox="0 0 31 18" fill="none" xmlns="http://www.w3.org/2000/svg">
<path d="M0.689454 0.5H5.14505C5.41109 1.06172 5.67718 1.64007 5.9448 2.22172C6.69852 3.85992 7.46427 5.52426 8.27468 6.9168C8.85142 7.90781 9.46904 8.79523 10.1484 9.46209C10.8284 10.1296 11.6015 10.6063 12.4855 10.7089C12.6271 10.7253 12.7691 10.6804 12.8756 10.5856C12.9822 10.4907 13.0431 10.3548 13.0431 10.2122V2.23764C13.0431 2.12307 13.0037 2.01197 12.9316 1.92294L11.7792 0.5H17.8218V9.13305C17.8218 9.32015 17.9263 9.49159 18.0925 9.57738C18.2588 9.66318 18.459 9.64896 18.6115 9.54054C20.377 8.28524 21.5325 6.71135 22.4975 5.08668C22.8858 4.43301 23.2475 3.76341 23.6034 3.10445C23.6878 2.94811 23.772 2.79238 23.856 2.6376C24.254 1.905 24.6537 1.18839 25.095 0.5H29.3922C28.4179 3.70121 26.7205 6.00643 24.9686 8.38571C24.7515 8.6805 24.5336 8.97641 24.3162 9.27531C24.1616 9.48775 24.1978 9.78355 24.3991 9.95244C26.8362 11.998 28.8156 14.5278 30.213 17.3773H25.4335C24.9525 16.9465 24.519 16.4726 24.0848 15.9794C23.994 15.8762 23.9028 15.7718 23.811 15.6666C23.4291 15.2293 23.0372 14.7805 22.6201 14.3629C21.5678 13.3092 20.3091 12.4052 18.397 12.1142C18.2529 12.0923 18.1065 12.1343 17.9959 12.2293C17.8854 12.3243 17.8218 12.4628 17.8218 12.6085V17.4304C12.2225 17.9787 8.42794 15.212 5.75409 11.5028C3.18474 7.93862 1.68896 3.55163 0.689454 0.5Z" stroke="#C73731" stroke-linecap="round" stroke-linejoin="round"/>
</svg>
