<svg width="53" height="53" viewBox="0 0 53 53" fill="none" xmlns="http://www.w3.org/2000/svg">
<path fill-rule="evenodd" clip-rule="evenodd" d="M26.0927 52.5926C40.5032 52.5926 52.1853 40.9105 52.1853 26.4999C52.1853 12.0893 40.5032 0.407227 26.0927 0.407227C11.6821 0.407227 0 12.0893 0 26.4999C0 40.9105 11.6821 52.5926 26.0927 52.5926ZM40.843 17.53C41.9871 17.53 42.2249 18.0926 41.9871 18.857C41.5115 20.9546 36.8902 27.1435 36.8838 27.1496C36.4853 27.7611 36.3246 28.0669 36.8838 28.7518C36.9257 28.8082 37.1391 29.0157 37.4615 29.3292C38.8181 30.6486 42.1061 33.8461 42.6877 35.5706C43.0027 36.5858 42.4563 37.0995 41.3765 37.0995H37.5908C36.5797 37.0995 36.0695 36.5596 34.9649 35.391C34.4966 34.8955 33.9214 34.287 33.1559 33.5586C30.9063 31.4977 29.9422 31.2286 29.383 31.2286C28.3571 31.2286 28.3597 31.5063 28.3839 34.09C28.3882 34.5496 28.3931 35.0821 28.3931 35.699C28.3931 36.5858 28.0975 37.0995 25.6872 37.0995C21.6765 37.0995 17.2673 34.7817 14.1371 30.507C9.43871 24.2447 8.15323 19.5053 8.15323 18.5512C8.15323 18.0131 8.37176 17.53 9.45157 17.53H13.2373C14.2079 17.53 14.5742 17.9336 14.947 18.9304C16.7981 24.0674 19.9218 28.5561 21.2073 28.5561C21.6894 28.5561 21.9079 28.3421 21.9079 27.1802V21.8719C21.8205 20.3594 21.2661 19.7049 20.8557 19.2204C20.6024 18.9213 20.4039 18.687 20.4039 18.3555C20.4039 17.958 20.7638 17.53 21.368 17.53H27.3198C28.1168 17.53 28.3867 17.9397 28.3867 18.857V25.9938C28.3867 26.7582 28.7531 27.0273 28.9909 27.0273C29.4729 27.0273 29.8779 26.7582 30.7584 25.9204C33.4837 23.0216 35.4119 18.5512 35.4119 18.5512C35.6497 18.0131 36.0932 17.53 37.0573 17.53H40.843Z" fill="#B8B8B8"/>
</svg>
