<svg width="52" height="51" viewBox="0 0 52 51" fill="none" xmlns="http://www.w3.org/2000/svg">
<path d="M25.6867 0.0844727C39.7243 0.0844727 51.1034 11.4635 51.1034 25.5011C51.1034 39.5388 39.7243 50.9178 25.6867 50.9178C21.195 50.9251 16.7824 49.7364 12.9021 47.4739L0.280222 50.9178L3.71656 38.2908C1.45217 34.4094 0.262551 29.9948 0.270055 25.5011C0.270055 11.4635 11.6491 0.0844727 25.6867 0.0844727ZM17.0247 13.5553L16.5164 13.5756C16.1873 13.5957 15.8657 13.6821 15.5709 13.8298C15.2952 13.9859 15.0435 14.1811 14.8236 14.4093C14.5186 14.6965 14.3458 14.9456 14.1603 15.1871C13.2202 16.4094 12.714 17.91 12.7217 19.452C12.7268 20.6974 13.0521 21.9098 13.5604 23.0433C14.6 25.3359 16.3105 27.7632 18.5675 30.0126C19.1114 30.554 19.6452 31.0979 20.2196 31.6037C23.024 34.0728 26.366 35.8535 29.9796 36.8039L31.4233 37.0251C31.8935 37.0505 32.3637 37.0149 32.8364 36.992C33.5767 36.9538 34.2994 36.7534 34.9536 36.4049C35.2865 36.2334 35.6113 36.0469 35.9271 35.8457C35.9271 35.8457 36.0364 35.7746 36.2448 35.617C36.5879 35.3628 36.7989 35.1824 37.0836 34.885C37.2945 34.6664 37.4775 34.4097 37.6173 34.1174C37.8156 33.7031 38.0138 32.9126 38.0951 32.2543C38.1561 31.7511 38.1383 31.4766 38.1307 31.3063C38.1206 31.0343 37.8943 30.7522 37.6478 30.6328L36.1686 29.9694C36.1686 29.9694 33.9573 29.0061 32.6051 28.391C32.4636 28.3292 32.312 28.2939 32.1578 28.2868C31.9839 28.2689 31.8082 28.2885 31.6425 28.3442C31.4768 28.3999 31.3249 28.4904 31.1971 28.6096C31.1843 28.6045 31.0141 28.7494 29.1764 30.9759C29.071 31.1176 28.9257 31.2247 28.7591 31.2836C28.5925 31.3424 28.4122 31.3503 28.2411 31.3063C28.0755 31.2619 27.9133 31.2059 27.7556 31.1386C27.4405 31.0064 27.3312 30.9556 27.1151 30.8641C25.6564 30.2275 24.3058 29.3674 23.112 28.3148C22.7918 28.0352 22.4944 27.7302 22.1894 27.4353C21.1895 26.4777 20.318 25.3944 19.5969 24.2125L19.4469 23.9711C19.3392 23.8088 19.2521 23.6338 19.1877 23.45C19.0911 23.0764 19.3427 22.7765 19.3427 22.7765C19.3427 22.7765 19.9603 22.1004 20.2476 21.7344C20.5271 21.3786 20.7635 21.0329 20.916 20.7864C21.2159 20.3034 21.31 19.8078 21.1524 19.424C20.4407 17.6855 19.7036 15.9546 18.9462 14.2365C18.7963 13.8959 18.3515 13.6519 17.9473 13.6036C17.8101 13.5883 17.6728 13.5731 17.5356 13.5629C17.1943 13.546 16.8522 13.5494 16.5113 13.5731L17.0247 13.5553Z" fill="#B8B8B8"/>
</svg>
