<svg width="23" height="23" viewBox="0 0 23 23" fill="none" xmlns="http://www.w3.org/2000/svg">
<path d="M11.5047 1C9.67998 1.00196 7.88713 1.47856 6.30248 2.38296C4.71783 3.28735 3.39593 4.58839 2.46676 6.15816C1.53758 7.72793 1.03311 9.51239 1.00296 11.3361C0.972804 13.1598 1.418 14.9599 2.29477 16.5595L1 22L6.44293 20.7058C7.84678 21.4756 9.4081 21.9144 11.0076 21.9887C12.6071 22.063 14.2024 21.7708 15.6716 21.1345C17.1408 20.4982 18.4451 19.5346 19.4847 18.3174C20.5243 17.1001 21.2718 15.6614 21.67 14.1112C22.0682 12.561 22.1066 10.9403 21.7822 9.37303C21.4579 7.80573 20.7794 6.33328 19.7985 5.06821C18.8177 3.80314 17.5605 2.77893 16.1231 2.07384C14.6856 1.36875 13.106 1.00145 11.5047 1V1ZM6.25237 5.7714H9.11553C9.24511 5.7714 9.36939 5.82285 9.46102 5.91444C9.55265 6.00602 9.60412 6.13024 9.60412 6.25977C9.5881 6.91106 9.69758 7.55935 9.92659 8.1693C10.0252 8.37348 10.0469 8.60636 9.98768 8.82522C9.92845 9.04409 9.79227 9.23429 9.60412 9.36093L8.60251 10.3377C9.04662 11.2046 9.62732 11.9944 10.3224 12.677C10.9997 13.383 11.7867 13.9751 12.6529 14.4302L13.6301 13.4291C14.1187 12.9407 14.3435 12.9407 14.8223 13.1067C15.4325 13.3357 16.0811 13.4451 16.7327 13.4291C16.8604 13.435 16.9812 13.4884 17.0716 13.5787C17.162 13.669 17.2153 13.7898 17.2213 13.9174V16.7793C17.2153 16.9069 17.162 17.0277 17.0716 17.118C16.9812 17.2084 16.8604 17.2617 16.7327 17.2677C13.8586 17.1425 11.1342 15.9516 9.0911 13.9272C7.06264 11.8872 5.87061 9.16274 5.74912 6.28907C5.75029 6.15464 5.80323 6.02584 5.89696 5.92943C5.99068 5.83301 6.11798 5.77642 6.25237 5.7714V5.7714Z" stroke="#C73731" stroke-linecap="round" stroke-linejoin="round"/>
</svg>
