<svg width="21" height="21" viewBox="0 0 21 21" fill="none" xmlns="http://www.w3.org/2000/svg">
<path d="M10.5 0.380859C10.5 8.72836 12.2325 10.5141 20.58 10.5141" stroke="#C73731"/>
<path d="M10.5 0.380859C10.5 8.72836 8.7675 10.5141 0.420001 10.5141" stroke="#C73731"/>
<path d="M10.5 20.9619C10.5 12.6144 8.7675 10.8286 0.420001 10.8286" stroke="#C73731"/>
<path d="M10.5 20.9619C10.5 12.6144 12.2325 10.8286 20.58 10.8286" stroke="#C73731"/>
<path d="M0.5 6.99828C0.5 3.82853 2.77662 1.12817 5.88968 0.795819C7.47278 0.626806 9.1221 0.5 10.5 0.5C11.8779 0.5 13.5272 0.626806 15.1103 0.79582C18.2234 1.12817 20.5 3.82853 20.5 6.99828V14.0114C20.5 17.2268 18.1583 19.9524 14.9927 20.2483C13.4462 20.3928 11.8443 20.5 10.5 20.5C9.1557 20.5 7.55377 20.3928 6.00728 20.2483C2.84167 19.9524 0.5 17.2268 0.5 14.0114V6.99828Z" stroke="#C73731"/>
</svg>
