<svg width="28" height="21" viewBox="0 0 28 21" fill="none" xmlns="http://www.w3.org/2000/svg">
<path d="M0.5 7.25572C0.5 3.98551 2.92397 1.23502 6.15902 0.939778C8.72819 0.705309 11.6511 0.5 14 0.5C16.3489 0.5 19.2718 0.705309 21.841 0.939778C25.076 1.23502 27.5 3.98551 27.5 7.25572V13.7782C27.5 17.0834 25.0253 19.8526 21.7506 20.1165C19.2035 20.3218 16.3214 20.5 14 20.5C11.6786 20.5 8.79648 20.3218 6.24942 20.1165C2.97466 19.8526 0.5 17.0834 0.5 13.7782V7.25572Z" stroke="#C73731"/>
<path d="M11.4336 5.82715L19.3536 10.4938L11.4336 15.1605V5.82715Z" stroke="#C73731" stroke-linecap="round" stroke-linejoin="round"/>
</svg>
