<svg width="18" height="18" viewBox="0 0 18 18" fill="none" xmlns="http://www.w3.org/2000/svg">
<path d="M8.05425 16.9946C7.25546 17.0067 6.46976 16.7748 5.78774 16.3255C5.76394 16.3081 5.74343 16.286 5.7273 16.2603L5.62152 16.0726C5.61053 16.0354 5.61053 15.9955 5.62152 15.9584V9.24323C5.62117 9.20948 5.62857 9.17615 5.64308 9.14625C5.65758 9.11634 5.67873 9.09079 5.70463 9.07189L6.03705 8.83527C6.25671 8.68558 6.46626 8.51926 6.66412 8.33755C7.66017 7.34498 8.37753 6.06977 8.73421 4.65769C8.85906 4.13991 8.95243 3.61387 9.01375 3.08294C9.05152 2.85448 9.08174 2.62602 9.11952 2.40572C9.12316 2.33506 9.12316 2.26423 9.11952 2.19357C9.12553 2.06628 9.14582 1.94025 9.17996 1.81825C9.24216 1.57142 9.38142 1.35538 9.57416 1.2067C9.76691 1.05801 10.0013 0.98581 10.2377 1.00231H10.283C10.523 1.00101 10.7559 1.08982 10.942 1.25355C11.128 1.41727 11.2556 1.64573 11.3029 1.89984L11.3483 2.18542C11.5787 3.41189 11.6725 4.6637 11.6278 5.91423C11.6103 6.42677 11.4612 6.92397 11.1972 7.35027H15.5564C15.7881 7.35097 16.0188 7.3811 16.2439 7.44002C16.4629 7.49755 16.657 7.63402 16.7944 7.82689C16.9318 8.01975 17.0041 8.25746 16.9994 8.50074V9.1698C16.9992 9.42342 16.9266 9.6708 16.7914 9.87816C16.6562 10.0855 16.465 10.2428 16.2439 10.3284C16.4316 10.4821 16.5703 10.6951 16.6407 10.9379C16.7111 11.1806 16.7098 11.441 16.6368 11.6829C16.5923 11.8934 16.4946 12.0865 16.3546 12.2407C16.2145 12.3948 16.0376 12.5039 15.8435 12.5559C15.9839 12.7177 16.0827 12.9163 16.1301 13.1321C16.1776 13.3478 16.172 13.5732 16.114 13.7859C16.056 13.9986 15.9475 14.1912 15.7994 14.3447C15.6512 14.4982 15.4685 14.6072 15.2693 14.661C15.4699 14.8406 15.6113 15.0854 15.6726 15.3589C15.7338 15.6324 15.7116 15.9199 15.6093 16.1787C15.5076 16.4409 15.3313 16.6614 15.1058 16.8081C14.8803 16.9548 14.6174 17.0201 14.3552 16.9946H8.05425Z" stroke="#B1AEAE" stroke-miterlimit="10"/>
<path d="M3.93892 16.5949H1.19643C1.14365 16.5928 1.09369 16.5687 1.05705 16.5276C1.02042 16.4865 0.999964 16.4317 1 16.3746V9.24339C1 9.18713 1.0207 9.13317 1.05753 9.09338C1.09437 9.0536 1.14433 9.03125 1.19643 9.03125H3.93892C3.99102 9.03125 4.04098 9.0536 4.07782 9.09338C4.11465 9.13317 4.13535 9.18713 4.13535 9.24339V16.3746C4.13539 16.4317 4.11494 16.4865 4.0783 16.5276C4.04166 16.5687 3.9917 16.5928 3.93892 16.5949V16.5949Z" stroke="#B1AEAE" stroke-miterlimit="10"/>
</svg>
