<svg width="28" height="28" viewBox="0 0 28 28" fill="none" xmlns="http://www.w3.org/2000/svg">
<path fill-rule="evenodd" clip-rule="evenodd" d="M13.3609 2.17829C11.9191 2.17829 10.4915 2.46724 9.15949 3.02866C7.82748 3.59008 6.61718 4.41296 5.59771 5.45032C4.57823 6.48769 3.76953 7.71921 3.2178 9.07459C2.66606 10.43 2.38208 11.8827 2.38208 13.3497C2.38208 14.8168 2.66606 16.2695 3.2178 17.6248C3.76953 18.9802 4.57823 20.2117 5.59771 21.2491C6.61718 22.2865 7.82748 23.1094 9.15949 23.6708C10.4915 24.2322 11.9191 24.5211 13.3609 24.5211C16.2727 24.5211 19.0652 23.3442 21.1241 21.2491C23.183 19.1541 24.3397 16.3126 24.3397 13.3497C24.3397 10.3869 23.183 7.54537 21.1241 5.45032C19.0652 3.35527 16.2727 2.17829 13.3609 2.17829ZM0.5 13.3497C0.5 6.1234 6.25918 0.263184 13.3609 0.263184C20.4626 0.263184 26.2218 6.1234 26.2218 13.3497C26.2218 16.6182 25.0436 19.6083 23.0963 21.9013L27.2005 26.0788C27.2929 26.1664 27.3671 26.2721 27.4185 26.3896C27.47 26.5071 27.4976 26.6339 27.4999 26.7624C27.5021 26.891 27.4788 27.0187 27.4315 27.1379C27.3842 27.2572 27.3137 27.3655 27.2244 27.4564C27.135 27.5473 27.0286 27.619 26.9114 27.6672C26.7942 27.7153 26.6687 27.739 26.5424 27.7367C26.416 27.7344 26.2914 27.7063 26.176 27.654C26.0605 27.6016 25.9566 27.5262 25.8705 27.4321L21.765 23.2559C19.4316 25.3115 16.4473 26.4409 13.3609 26.4362C6.25918 26.4362 0.5 20.576 0.5 13.3497Z" fill="#C6C3DD"/>
</svg>
