<svg width="1126" height="148" viewBox="0 0 1126 148" fill="none" xmlns="http://www.w3.org/2000/svg">
<path d="M18 124.203C43.4965 141.342 106.446 158.848 186.945 117.713C267.445 76.5778 343.018 100.573 370 117.713" stroke="#C73731" stroke-dasharray="7 7"/>
<path d="M379 124.203C404.496 141.342 467.446 158.848 547.945 117.713C628.445 76.5778 704.018 100.573 731 117.713" stroke="#C73731" stroke-dasharray="7 7"/>
<path d="M742 124.203C767.496 141.342 830.446 158.848 910.945 117.713C920.218 112.975 929.425 109.1 938.5 105.98" stroke="#C73731" stroke-dasharray="7 7"/>
<circle cx="13.5" cy="121.5" r="13" fill="#F5F5F5" stroke="#C73731"/>
<circle cx="13.5" cy="121.5" r="6.25" fill="#C73731"/>
<circle cx="397" cy="133" r="7.5" fill="#F5F5F5" stroke="#C73731"/>
<circle cx="397" cy="133" r="5.38462" fill="#C73731"/>
<circle cx="762" cy="133" r="7.5" fill="#F5F5F5" stroke="#C73731"/>
<circle cx="762" cy="133" r="5.38462" fill="#C73731"/>
<circle cx="222" cy="102" r="7.5" fill="#F5F5F5" stroke="#C73731"/>
<circle cx="222" cy="102" r="5.38462" fill="#C73731"/>
<circle cx="593" cy="99" r="7.5" fill="#F5F5F5" stroke="#C73731"/>
<circle cx="593" cy="99" r="5.38462" fill="#C73731"/>
<circle cx="938.5" cy="104.5" r="13" stroke="#C73731"/>
<circle cx="938.5" cy="104.5" r="6.25" fill="#C73731"/>
</svg>
