<svg width="1602" height="81" viewBox="0 0 1602 81" fill="none" xmlns="http://www.w3.org/2000/svg">
<path d="M20.5 45.4733C65.1997 57.2118 117.111 67.9945 156.983 67.9945C247.013 67.9945 286.236 15.3958 376.261 16.0653C463.55 16.7145 500.868 67.6649 588.16 67.9945C676.819 68.3292 715.131 18.0695 803.748 16.0653C901.596 13.8523 946.22 68.6314 1044.11 67.9945C1139.14 67.3762 1181.8 15.4436 1276.83 16.0653C1369.16 16.6693 1409.97 67.9945 1502.3 67.9945C1544 67.9945 1557 62 1584 51.5" stroke="#C73731" stroke-dasharray="7 7"/>
<circle cx="21" cy="48" r="20.5" fill="#F5F5F5" stroke="#C73731"/>
<circle cx="21" cy="48" r="10" fill="#C73731"/>
<circle cx="585" cy="67" r="13.5" fill="#F5F5F5" stroke="#C73731"/>
<circle cx="585" cy="67" r="10" fill="#C73731"/>
<circle cx="1045" cy="67" r="13.5" fill="#F5F5F5" stroke="#C73731"/>
<circle cx="1045" cy="67" r="10" fill="#C73731"/>
<circle cx="1581" cy="48" r="20.5" stroke="#C73731"/>
<circle cx="1581" cy="48" r="10" fill="#C73731"/>
<circle cx="356" cy="15" r="13.5" fill="#F5F5F5" stroke="#C73731"/>
<circle cx="356" cy="15" r="10" fill="#C73731"/>
<circle cx="816" cy="14" r="13.5" fill="#F5F5F5" stroke="#C73731"/>
<circle cx="816" cy="14" r="10" fill="#C73731"/>
<circle cx="1276" cy="18" r="13.5" fill="#F5F5F5" stroke="#C73731"/>
<circle cx="1276" cy="18" r="10" fill="#C73731"/>
</svg>
